<svg width="23" height="23" viewBox="0 0 23 23" fill="none" xmlns="http://www.w3.org/2000/svg">
<path d="M18.1348 8.75879C18.3688 8.53483 18.7348 8.49513 19.0137 8.68652L19.3828 8.95801C21.0112 10.232 22.0663 12.1491 22.252 14.1582L22.2861 14.125V18.7959C22.2861 19.6377 22.0236 20.3494 21.5225 20.8506C21.0212 21.3518 20.3091 21.6143 19.4668 21.6143H15.4629C13.0814 21.6142 10.7458 20.3597 9.3584 18.3438V18.3428C9.14111 18.0252 9.21935 17.5899 9.53906 17.3711L9.66309 17.3037C9.96136 17.1777 10.3178 17.2711 10.5098 17.5518H10.5107C11.6428 19.1972 13.5434 20.2167 15.4619 20.2168H19.4658C19.8259 20.2168 20.1801 20.1466 20.4385 19.9502C20.6825 19.7646 20.8867 19.4304 20.8867 18.7959V14.7891C20.8867 12.9902 19.9914 11.2074 18.5234 10.0596L18.2227 9.83887C17.9034 9.62018 17.8243 9.18417 18.042 8.86719L18.043 8.86523L18.1348 8.75879ZM9.14746 0.714844C11.2812 0.683574 13.3502 1.50643 14.875 3.03125C16.3993 4.55571 17.233 6.63107 17.1973 8.78027L17.1777 9.21094C16.8972 13.1923 13.1594 16.5264 9.02441 16.5264H4.62793C3.61092 16.5264 2.78869 16.2573 2.22168 15.6904C1.65473 15.1235 1.38484 14.3011 1.38477 13.2842V8.88477C1.38477 4.75143 4.72992 1.01546 8.71973 0.732422L9.14746 0.714844ZM8.95312 2.11816C5.63872 2.2802 2.7832 5.39463 2.7832 8.88477V13.2842C2.78327 13.9825 2.93979 14.4261 3.21289 14.6992C3.48605 14.9722 3.92955 15.1289 4.62793 15.1289H9.02344C12.4625 15.1289 15.5539 12.3585 15.7832 9.11328V9.10645L15.8057 8.76367C15.9259 5.23357 12.8388 2.03353 9.28418 2.11133H9.27539L8.95312 2.11816ZM5.89941 7.49707C6.51936 7.49707 7.02246 8.00017 7.02246 8.62012C7.02241 9.24002 6.51933 9.74316 5.89941 9.74316C5.27972 9.7429 4.77739 9.23986 4.77734 8.62012C4.77734 8.00033 5.27969 7.49733 5.89941 7.49707ZM9.29199 7.49707C9.9118 7.49723 10.415 8.00027 10.415 8.62012C10.415 9.23992 9.91177 9.743 9.29199 9.74316C8.67207 9.74316 8.16899 9.24002 8.16895 8.62012C8.16895 8.00017 8.67205 7.49707 9.29199 7.49707ZM12.6836 7.49707C13.3035 7.49713 13.8066 8.00021 13.8066 8.62012C13.8066 9.23999 13.3035 9.74311 12.6836 9.74316C12.0637 9.74316 11.5606 9.24002 11.5605 8.62012C11.5605 8.00017 12.0636 7.49707 12.6836 7.49707Z" fill="white" stroke="white" stroke-width="0.55"/>
</svg>
