<svg width="22" height="23" viewBox="0 0 22 23" fill="none" xmlns="http://www.w3.org/2000/svg">
<path d="M16.0678 9.42006C16.2247 7.19844 15.414 5.02345 13.8445 3.4539C12.2749 1.88435 10.1076 1.08558 7.90289 1.23567C4.06592 1.50786 0.824219 5.11503 0.824219 9.11311V13.5123C0.824219 15.4541 1.85024 16.4801 3.79204 16.4801H8.18865C12.1893 16.4801 15.7981 13.2477 16.0678 9.42006ZM8.18865 15.6321H3.79204C2.32594 15.6321 1.67217 14.9784 1.67217 13.5123V9.11311C1.67217 5.37196 4.82569 2.03104 8.44219 2.06496C12.2766 1.98101 15.5777 5.53477 15.2215 9.36071C14.9816 12.761 11.7602 15.6321 8.1878 15.6321H8.18865ZM21.175 15.0174V19.0248C21.175 20.5935 20.2007 21.5678 18.6311 21.5678H14.6271C12.3394 21.5678 10.0872 20.3603 8.74914 18.416C8.61686 18.2226 8.6652 17.9589 8.85853 17.8266C9.05186 17.6943 9.31557 17.7418 9.44785 17.936C10.629 19.6531 12.6132 20.7198 14.6263 20.7198H18.6303C19.4045 20.7198 20.3262 20.4256 20.3262 19.0248V15.0174C20.3262 13.0043 19.2595 11.021 17.5424 9.84065C17.349 9.70837 17.3007 9.44381 17.433 9.25132C17.567 9.05884 17.8298 9.00966 18.0223 9.14194C19.9658 10.4783 21.1741 12.7296 21.1741 15.0182L21.175 15.0174ZM9.3037 8.84855C9.3037 9.31662 8.92382 9.6965 8.45575 9.6965C7.98769 9.6965 7.60781 9.31662 7.60781 8.84855C7.60781 8.38048 7.98769 8.0006 8.45575 8.0006C8.92382 8.0006 9.3037 8.38048 9.3037 8.84855ZM5.91191 8.84855C5.91191 9.31662 5.53203 9.6965 5.06396 9.6965C4.59589 9.6965 4.21601 9.31662 4.21601 8.84855C4.21601 8.38048 4.59589 8.0006 5.06396 8.0006C5.53203 8.0006 5.91191 8.38048 5.91191 8.84855ZM12.6955 8.84855C12.6955 9.31662 12.3156 9.6965 11.8475 9.6965C11.3795 9.6965 10.9996 9.31662 10.9996 8.84855C10.9996 8.38048 11.3795 8.0006 11.8475 8.0006C12.3156 8.0006 12.6955 8.38048 12.6955 8.84855Z" fill="#64748B" stroke="#64748B" stroke-width="1.2"/>
</svg>
