<svg width="24" height="25" viewBox="0 0 24 25" fill="none" xmlns="http://www.w3.org/2000/svg">
<path d="M9.204 5.70815C9.11027 5.80112 9.03588 5.91172 8.98511 6.03358C8.93434 6.15544 8.9082 6.28614 8.9082 6.41815C8.9082 6.55017 8.93434 6.68087 8.98511 6.80273C9.03588 6.92459 9.11027 7.03519 9.204 7.12815L13.784 11.7082C13.8777 11.8011 13.9521 11.9117 14.0029 12.0336C14.0537 12.1554 14.0798 12.2861 14.0798 12.4182C14.0798 12.5502 14.0537 12.6809 14.0029 12.8027C13.9521 12.9246 13.8777 13.0352 13.784 13.1282L9.204 17.7082C9.11027 17.8011 9.03588 17.9117 8.98511 18.0336C8.93434 18.1554 8.9082 18.2861 8.9082 18.4182C8.9082 18.5502 8.93434 18.6809 8.98511 18.8027C9.03588 18.9246 9.11027 19.0352 9.204 19.1282C9.39136 19.3144 9.64482 19.4189 9.909 19.4189C10.1732 19.4189 10.4266 19.3144 10.614 19.1282L15.204 14.5382C15.7658 13.9757 16.0814 13.2132 16.0814 12.4182C16.0814 11.6232 15.7658 10.8607 15.204 10.2982L10.614 5.70815C10.4266 5.5219 10.1732 5.41736 9.909 5.41736C9.64482 5.41736 9.39136 5.5219 9.204 5.70815Z" fill="#64748B"/>
</svg>
