<svg width="22" height="23" viewBox="0 0 22 23" fill="none" xmlns="http://www.w3.org/2000/svg">
<g clip-path="url(#clip0_940_9679)">
<path d="M10.9985 0.498047C15.024 0.498047 18.9687 1.46668 19.144 1.50977L19.146 1.51074C19.3187 1.5545 19.4658 1.66393 19.5571 1.81348H19.5767L19.6226 1.9502C19.6714 2.09679 20.6558 5.1138 20.6558 11.0986C20.6557 17.0809 19.6721 20.0973 19.6226 20.2461L19.6216 20.2471C19.5478 20.4643 19.3697 20.6301 19.147 20.6865H19.145C18.9707 20.7294 15.0256 21.6982 10.9995 21.6982C6.97025 21.6982 3.02222 20.7279 2.854 20.6865H2.85303C2.63103 20.6304 2.45039 20.4649 2.37744 20.2461C2.32807 20.0979 1.34428 17.0815 1.34424 11.0986C1.34424 5.11318 2.32878 2.09621 2.37744 1.9502L2.37842 1.94922C2.45217 1.73199 2.63034 1.56713 2.85303 1.51074L2.854 1.50977C3.02221 1.46844 6.96928 0.498118 10.9985 0.498047ZM2.83057 7.5166C2.74825 8.55836 2.69092 9.74035 2.69092 11.0986C2.69095 15.7163 3.3069 18.5241 3.5542 19.4658C4.6322 19.7046 7.83868 20.3525 10.9995 20.3525C14.1599 20.3525 17.3664 19.7054 18.4448 19.4658C18.6921 18.5243 19.309 15.7166 19.3091 11.0986C19.3091 9.74051 19.2511 8.55852 19.1694 7.5166H2.83057ZM10.5269 13.7344C10.8982 13.7344 11.1997 14.0359 11.1997 14.4072C11.1997 14.7786 10.8983 15.0801 10.5269 15.0801H5.80029C5.42889 15.0801 5.12744 14.7786 5.12744 14.4072C5.1275 14.0359 5.42893 13.7344 5.80029 13.7344H10.5269ZM16.1997 9.95312C16.5711 9.95312 16.8726 10.2546 16.8726 10.626C16.8723 10.9972 16.571 11.2979 16.1997 11.2979H5.80029C5.42904 11.2979 5.12769 10.9972 5.12744 10.626C5.12744 10.2546 5.42889 9.95312 5.80029 9.95312H16.1997ZM10.9995 1.84375C7.83963 1.84381 4.63393 2.48986 3.55518 2.72949C3.41436 3.26816 3.15318 4.42231 2.95459 6.1709H19.0444C18.8458 4.42215 18.5846 3.26806 18.4438 2.72949C17.3639 2.49039 14.1586 1.84375 10.9995 1.84375Z" fill="white" stroke="white" stroke-width="0.4"/>
</g>
<defs>
<clipPath id="clip0_940_9679">
<rect width="22" height="22" fill="white" transform="translate(0 0.0986328)"/>
</clipPath>
</defs>
</svg>
