<svg width="22" height="23" viewBox="0 0 22 23" fill="none" xmlns="http://www.w3.org/2000/svg">
<g clip-path="url(#clip0_314_4533)">
<path d="M6.41667 0.392578H3.66667C2.69421 0.392578 1.76158 0.778887 1.07394 1.46652C0.386309 2.15415 0 3.08678 0 4.05925L0 6.80925C0 7.78171 0.386309 8.71434 1.07394 9.40197C1.76158 10.0896 2.69421 10.4759 3.66667 10.4759H6.41667C7.38913 10.4759 8.32176 10.0896 9.00939 9.40197C9.69703 8.71434 10.0833 7.78171 10.0833 6.80925V4.05925C10.0833 3.08678 9.69703 2.15415 9.00939 1.46652C8.32176 0.778887 7.38913 0.392578 6.41667 0.392578ZM8.25 6.80925C8.25 7.29548 8.05685 7.76179 7.71303 8.10561C7.36921 8.44942 6.9029 8.64258 6.41667 8.64258H3.66667C3.18044 8.64258 2.71412 8.44942 2.3703 8.10561C2.02649 7.76179 1.83333 7.29548 1.83333 6.80925V4.05925C1.83333 3.57301 2.02649 3.1067 2.3703 2.76288C2.71412 2.41907 3.18044 2.22591 3.66667 2.22591H6.41667C6.9029 2.22591 7.36921 2.41907 7.71303 2.76288C8.05685 3.1067 8.25 3.57301 8.25 4.05925V6.80925Z" fill="white"/>
<path d="M18.3337 0.392578H15.5837C14.6112 0.392578 13.6786 0.778887 12.9909 1.46652C12.3033 2.15415 11.917 3.08678 11.917 4.05925V6.80925C11.917 7.78171 12.3033 8.71434 12.9909 9.40197C13.6786 10.0896 14.6112 10.4759 15.5837 10.4759H18.3337C19.3061 10.4759 20.2388 10.0896 20.9264 9.40197C21.614 8.71434 22.0003 7.78171 22.0003 6.80925V4.05925C22.0003 3.08678 21.614 2.15415 20.9264 1.46652C20.2388 0.778887 19.3061 0.392578 18.3337 0.392578ZM20.167 6.80925C20.167 7.29548 19.9738 7.76179 19.63 8.10561C19.2862 8.44942 18.8199 8.64258 18.3337 8.64258H15.5837C15.0974 8.64258 14.6311 8.44942 14.2873 8.10561C13.9435 7.76179 13.7503 7.29548 13.7503 6.80925V4.05925C13.7503 3.57301 13.9435 3.1067 14.2873 2.76288C14.6311 2.41907 15.0974 2.22591 15.5837 2.22591H18.3337C18.8199 2.22591 19.2862 2.41907 19.63 2.76288C19.9738 3.1067 20.167 3.57301 20.167 4.05925V6.80925Z" fill="white"/>
<path d="M6.41667 12.3086H3.66667C2.69421 12.3086 1.76158 12.6949 1.07394 13.3825C0.386309 14.0702 0 15.0028 0 15.9753L0 18.7253C0 19.6977 0.386309 20.6304 1.07394 21.318C1.76158 22.0056 2.69421 22.3919 3.66667 22.3919H6.41667C7.38913 22.3919 8.32176 22.0056 9.00939 21.318C9.69703 20.6304 10.0833 19.6977 10.0833 18.7253V15.9753C10.0833 15.0028 9.69703 14.0702 9.00939 13.3825C8.32176 12.6949 7.38913 12.3086 6.41667 12.3086ZM8.25 18.7253C8.25 19.2115 8.05685 19.6778 7.71303 20.0216C7.36921 20.3654 6.9029 20.5586 6.41667 20.5586H3.66667C3.18044 20.5586 2.71412 20.3654 2.3703 20.0216C2.02649 19.6778 1.83333 19.2115 1.83333 18.7253V15.9753C1.83333 15.489 2.02649 15.0227 2.3703 14.6789C2.71412 14.3351 3.18044 14.1419 3.66667 14.1419H6.41667C6.9029 14.1419 7.36921 14.3351 7.71303 14.6789C8.05685 15.0227 8.25 15.489 8.25 15.9753V18.7253Z" fill="white"/>
<path d="M18.3337 12.3086H15.5837C14.6112 12.3086 13.6786 12.6949 12.9909 13.3825C12.3033 14.0702 11.917 15.0028 11.917 15.9753V18.7253C11.917 19.6977 12.3033 20.6304 12.9909 21.318C13.6786 22.0056 14.6112 22.3919 15.5837 22.3919H18.3337C19.3061 22.3919 20.2388 22.0056 20.9264 21.318C21.614 20.6304 22.0003 19.6977 22.0003 18.7253V15.9753C22.0003 15.0028 21.614 14.0702 20.9264 13.3825C20.2388 12.6949 19.3061 12.3086 18.3337 12.3086ZM20.167 18.7253C20.167 19.2115 19.9738 19.6778 19.63 20.0216C19.2862 20.3654 18.8199 20.5586 18.3337 20.5586H15.5837C15.0974 20.5586 14.6311 20.3654 14.2873 20.0216C13.9435 19.6778 13.7503 19.2115 13.7503 18.7253V15.9753C13.7503 15.489 13.9435 15.0227 14.2873 14.6789C14.6311 14.3351 15.0974 14.1419 15.5837 14.1419H18.3337C18.8199 14.1419 19.2862 14.3351 19.63 14.6789C19.9738 15.0227 20.167 15.489 20.167 15.9753V18.7253Z" fill="white"/>
</g>
<defs>
<clipPath id="clip0_314_4533">
<rect width="22" height="22" fill="white" transform="translate(0 0.392578)"/>
</clipPath>
</defs>
</svg>
