<svg width="24" height="25" viewBox="0 0 24 25" fill="none" xmlns="http://www.w3.org/2000/svg">
<g clip-path="url(#clip0_946_9184)">
<path d="M12 16.0986C11.2089 16.0986 10.4355 15.864 9.77772 15.4245C9.11992 14.985 8.60723 14.3603 8.30448 13.6294C8.00173 12.8985 7.92252 12.0942 8.07686 11.3183C8.2312 10.5424 8.61216 9.82962 9.17157 9.27021C9.73098 8.7108 10.4437 8.32984 11.2196 8.17549C11.9956 8.02115 12.7998 8.10037 13.5307 8.40312C14.2616 8.70587 14.8864 9.21856 15.3259 9.87636C15.7654 10.5342 16 11.3075 16 12.0986C16 13.1595 15.5786 14.1769 14.8284 14.9271C14.0783 15.6772 13.0609 16.0986 12 16.0986ZM12 10.0986C11.6044 10.0986 11.2178 10.2159 10.8889 10.4357C10.56 10.6555 10.3036 10.9678 10.1522 11.3333C10.0009 11.6987 9.96126 12.1009 10.0384 12.4888C10.1156 12.8768 10.3061 13.2331 10.5858 13.5128C10.8655 13.7926 11.2219 13.983 11.6098 14.0602C11.9978 14.1374 12.3999 14.0978 12.7654 13.9464C13.1308 13.795 13.4432 13.5387 13.6629 13.2098C13.8827 12.8809 14 12.4942 14 12.0986C14 11.5682 13.7893 11.0595 13.4142 10.6844C13.0391 10.3094 12.5304 10.0986 12 10.0986ZM18 23.0986C18 21.5073 17.3679 19.9812 16.2426 18.856C15.1174 17.7308 13.5913 17.0986 12 17.0986C10.4087 17.0986 8.88258 17.7308 7.75736 18.856C6.63214 19.9812 6 21.5073 6 23.0986C6 23.3639 6.10536 23.6182 6.29289 23.8057C6.48043 23.9933 6.73478 24.0986 7 24.0986C7.26522 24.0986 7.51957 23.9933 7.70711 23.8057C7.89464 23.6182 8 23.3639 8 23.0986C8 22.0378 8.42143 21.0204 9.17157 20.2702C9.92172 19.5201 10.9391 19.0986 12 19.0986C13.0609 19.0986 14.0783 19.5201 14.8284 20.2702C15.5786 21.0204 16 22.0378 16 23.0986C16 23.3639 16.1054 23.6182 16.2929 23.8057C16.4804 23.9933 16.7348 24.0986 17 24.0986C17.2652 24.0986 17.5196 23.9933 17.7071 23.8057C17.8946 23.6182 18 23.3639 18 23.0986ZM18 8.09864C17.2089 8.09864 16.4355 7.86404 15.7777 7.42451C15.1199 6.98499 14.6072 6.36027 14.3045 5.62937C14.0017 4.89846 13.9225 4.0942 14.0769 3.31827C14.2312 2.54235 14.6122 1.82962 15.1716 1.27021C15.731 0.710798 16.4437 0.329834 17.2196 0.175493C17.9956 0.0211526 18.7998 0.100366 19.5307 0.403117C20.2616 0.705867 20.8864 1.21856 21.3259 1.87635C21.7654 2.53415 22 3.30751 22 4.09864C22 5.1595 21.5786 6.17692 20.8284 6.92706C20.0783 7.67721 19.0609 8.09864 18 8.09864ZM18 2.09863C17.6044 2.09863 17.2178 2.21593 16.8889 2.4357C16.56 2.65546 16.3036 2.96782 16.1522 3.33327C16.0009 3.69872 15.9613 4.10085 16.0384 4.48882C16.1156 4.87678 16.3061 5.23314 16.5858 5.51285C16.8655 5.79255 17.2219 5.98304 17.6098 6.06021C17.9978 6.13738 18.3999 6.09777 18.7654 5.94639C19.1308 5.79502 19.4432 5.53867 19.6629 5.20978C19.8827 4.88088 20 4.4942 20 4.09864C20 3.5682 19.7893 3.05949 19.4142 2.68442C19.0391 2.30935 18.5304 2.09863 18 2.09863ZM24 15.0986C23.9984 13.5078 23.3658 11.9826 22.2409 10.8577C21.116 9.73288 19.5908 9.10022 18 9.09864C17.7348 9.09864 17.4804 9.20399 17.2929 9.39153C17.1054 9.57907 17 9.83342 17 10.0986C17 10.3639 17.1054 10.6182 17.2929 10.8057C17.4804 10.9933 17.7348 11.0986 18 11.0986C19.0609 11.0986 20.0783 11.5201 20.8284 12.2702C21.5786 13.0204 22 14.0378 22 15.0986C22 15.3639 22.1054 15.6182 22.2929 15.8057C22.4804 15.9933 22.7348 16.0986 23 16.0986C23.2652 16.0986 23.5196 15.9933 23.7071 15.8057C23.8946 15.6182 24 15.3639 24 15.0986ZM6 8.09864C5.20887 8.09864 4.43552 7.86404 3.77772 7.42451C3.11992 6.98499 2.60723 6.36027 2.30448 5.62937C2.00173 4.89846 1.92252 4.0942 2.07686 3.31827C2.2312 2.54235 2.61216 1.82962 3.17157 1.27021C3.73098 0.710798 4.44371 0.329834 5.21964 0.175493C5.99556 0.0211526 6.79983 0.100366 7.53073 0.403117C8.26164 0.705867 8.88635 1.21856 9.32588 1.87635C9.7654 2.53415 10 3.30751 10 4.09864C10 5.1595 9.57857 6.17692 8.82843 6.92706C8.07828 7.67721 7.06087 8.09864 6 8.09864ZM6 2.09863C5.60444 2.09863 5.21776 2.21593 4.88886 2.4357C4.55996 2.65546 4.30362 2.96782 4.15224 3.33327C4.00087 3.69872 3.96126 4.10085 4.03843 4.48882C4.1156 4.87678 4.30608 5.23314 4.58579 5.51285C4.86549 5.79255 5.22186 5.98304 5.60982 6.06021C5.99778 6.13738 6.39991 6.09777 6.76537 5.94639C7.13082 5.79502 7.44318 5.53867 7.66294 5.20978C7.8827 4.88088 8 4.4942 8 4.09864C8 3.5682 7.78929 3.05949 7.41421 2.68442C7.03914 2.30935 6.53043 2.09863 6 2.09863ZM2 15.0986C2 14.0378 2.42143 13.0204 3.17157 12.2702C3.92172 11.5201 4.93913 11.0986 6 11.0986C6.26522 11.0986 6.51957 10.9933 6.70711 10.8057C6.89464 10.6182 7 10.3639 7 10.0986C7 9.83342 6.89464 9.57907 6.70711 9.39153C6.51957 9.20399 6.26522 9.09864 6 9.09864C4.40919 9.10022 2.88399 9.73288 1.75911 10.8577C0.63424 11.9826 0.00158843 13.5078 0 15.0986C0 15.3639 0.105357 15.6182 0.292893 15.8057C0.48043 15.9933 0.734784 16.0986 1 16.0986C1.26522 16.0986 1.51957 15.9933 1.70711 15.8057C1.89464 15.6182 2 15.3639 2 15.0986Z" fill="white"/>
</g>
<defs>
<clipPath id="clip0_946_9184">
<rect width="24" height="24" fill="white" transform="translate(0 0.0986328)"/>
</clipPath>
</defs>
</svg>
