<svg width="22" height="23" viewBox="0 0 22 23" fill="none" xmlns="http://www.w3.org/2000/svg">
<g clip-path="url(#clip0_176_5004)">
<path d="M11 0.686523C4.93442 0.686523 0 5.62094 0 11.6865C0 17.7521 4.93442 22.6865 11 22.6865C17.0656 22.6865 22 17.7521 22 11.6865C22 5.62094 17.0656 0.686523 11 0.686523ZM11 20.8532C5.9455 20.8532 1.83333 16.741 1.83333 11.6865C1.83333 6.63202 5.9455 2.51986 11 2.51986C16.0545 2.51986 20.1667 6.63202 20.1667 11.6865C20.1667 16.741 16.0545 20.8532 11 20.8532ZM14.6667 13.5199C14.6667 15.036 13.4328 16.2699 11.9167 16.2699V17.1865C11.9167 17.6934 11.5069 18.1032 11 18.1032C10.4931 18.1032 10.0833 17.6934 10.0833 17.1865V16.2699H9.83767C8.85958 16.2699 7.94658 15.7437 7.45617 14.8958C7.20225 14.4567 7.35258 13.8966 7.78983 13.6436C8.22892 13.3879 8.78992 13.54 9.042 13.9773C9.20608 14.2614 9.51042 14.4365 9.83675 14.4365H11.9157C12.4218 14.4365 12.8324 14.0259 12.8324 13.5199C12.8324 13.1734 12.584 12.88 12.2421 12.8232L9.4545 12.3584C8.22433 12.154 7.33242 11.0999 7.33242 9.85319C7.33242 8.33702 8.56625 7.10319 10.0824 7.10319V6.18652C10.0824 5.68052 10.4922 5.26986 10.9991 5.26986C11.506 5.26986 11.9157 5.68052 11.9157 6.18652V7.10319H12.1614C13.1395 7.10319 14.0525 7.63027 14.5429 8.47819C14.7968 8.91636 14.6465 9.47644 14.2093 9.73036C13.7693 9.98427 13.2092 9.83394 12.9571 9.39577C12.793 9.11252 12.4887 8.93744 12.1623 8.93744H10.0833C9.57733 8.93744 9.16667 9.34902 9.16667 9.85411C9.16667 10.2006 9.41508 10.4939 9.757 10.5508L12.5446 11.0155C13.7748 11.2199 14.6667 12.2741 14.6667 13.5208V13.5199Z" fill="#64748B"/>
</g>
<defs>
<clipPath id="clip0_176_5004">
<rect width="22" height="22" fill="white" transform="translate(0 0.686523)"/>
</clipPath>
</defs>
</svg>
