<svg width="23" height="23" viewBox="0 0 23 23" fill="none" xmlns="http://www.w3.org/2000/svg">
<g clip-path="url(#clip0_151_5314)">
<path d="M11.8354 0.164062C5.76987 0.164062 0.835449 5.09848 0.835449 11.1641C0.835449 17.2296 5.76987 22.1641 11.8354 22.1641C17.901 22.1641 22.8354 17.2296 22.8354 11.1641C22.8354 5.09848 17.901 0.164062 11.8354 0.164062ZM11.8354 20.3307C6.78095 20.3307 2.66878 16.2186 2.66878 11.1641C2.66878 6.10956 6.78095 1.9974 11.8354 1.9974C16.8899 1.9974 21.0021 6.10956 21.0021 11.1641C21.0021 16.2186 16.8899 20.3307 11.8354 20.3307ZM15.5021 12.9974C15.5021 14.5136 14.2683 15.7474 12.7521 15.7474V16.6641C12.7521 17.171 12.3424 17.5807 11.8354 17.5807C11.3285 17.5807 10.9188 17.171 10.9188 16.6641V15.7474H10.6731C9.69503 15.7474 8.78203 15.2212 8.29162 14.3733C8.0377 13.9342 8.18803 13.3741 8.62528 13.1211C9.06437 12.8654 9.62537 13.0176 9.87745 13.4548C10.0415 13.739 10.3459 13.9141 10.6722 13.9141H12.7512C13.2572 13.9141 13.6679 13.5034 13.6679 12.9974C13.6679 12.6509 13.4194 12.3576 13.0775 12.3007L10.2899 11.836C9.05978 11.6316 8.16787 10.5774 8.16787 9.33073C8.16787 7.81456 9.4017 6.58073 10.9179 6.58073V5.66406C10.9179 5.15806 11.3276 4.7474 11.8345 4.7474C12.3414 4.7474 12.7512 5.15806 12.7512 5.66406V6.58073H12.9969C13.9749 6.58073 14.8879 7.10781 15.3784 7.95573C15.6323 8.3939 15.4819 8.95398 15.0447 9.2079C14.6047 9.46181 14.0446 9.31148 13.7925 8.87331C13.6284 8.59006 13.3241 8.41498 12.9978 8.41498H10.9188C10.4128 8.41498 10.0021 8.82656 10.0021 9.33165C10.0021 9.67815 10.2505 9.97148 10.5924 10.0283L13.38 10.4931C14.6102 10.6975 15.5021 11.7516 15.5021 12.9983V12.9974Z" fill="white"/>
</g>
<defs>
<clipPath id="clip0_151_5314">
<rect width="22" height="22" fill="white" transform="translate(0.835449 0.164062)"/>
</clipPath>
</defs>
</svg>
