<svg width="22" height="23" viewBox="0 0 22 23" fill="none" xmlns="http://www.w3.org/2000/svg">
<g clip-path="url(#clip0_176_5067)">
<path d="M6.41667 20.8532H4.58333C3.85399 20.8532 3.15451 20.5635 2.63879 20.0477C2.12306 19.532 1.83333 18.8325 1.83333 18.1032V5.26986C1.83333 4.54051 2.12306 3.84104 2.63879 3.32531C3.15451 2.80959 3.85399 2.51986 4.58333 2.51986H6.41667C6.65978 2.51986 6.89294 2.42328 7.06485 2.25137C7.23676 2.07946 7.33333 1.84631 7.33333 1.60319C7.33333 1.36007 7.23676 1.12692 7.06485 0.955009C6.89294 0.783101 6.65978 0.686523 6.41667 0.686523H4.58333C3.3682 0.687979 2.20326 1.17133 1.34403 2.03056C0.484808 2.88978 0.00145554 4.05473 0 5.26986L0 18.1032C0.00145554 19.3183 0.484808 20.4833 1.34403 21.3425C2.20326 22.2017 3.3682 22.6851 4.58333 22.6865H6.41667C6.65978 22.6865 6.89294 22.5899 7.06485 22.418C7.23676 22.2461 7.33333 22.013 7.33333 21.7699C7.33333 21.5267 7.23676 21.2936 7.06485 21.1217C6.89294 20.9498 6.65978 20.8532 6.41667 20.8532Z" fill="#64748B"/>
<path d="M21.0833 10.7701L6.62106 10.7994C6.70146 10.6501 6.80201 10.5125 6.91989 10.3906L10.4756 6.8348C10.5632 6.75024 10.633 6.64909 10.6811 6.53726C10.7291 6.42542 10.7544 6.30514 10.7555 6.18342C10.7565 6.06171 10.7333 5.941 10.6872 5.82835C10.6411 5.71569 10.5731 5.61334 10.487 5.52727C10.4009 5.44121 10.2986 5.37314 10.1859 5.32705C10.0733 5.28096 9.95257 5.25777 9.83086 5.25882C9.70914 5.25988 9.58886 5.28517 9.47702 5.33321C9.36518 5.38125 9.26403 5.45109 9.17947 5.53864L5.62189 9.09439C4.9345 9.78199 4.54834 10.7145 4.54834 11.6867C4.54834 12.659 4.9345 13.5915 5.62189 14.2791L9.17764 17.8348C9.2622 17.9224 9.36335 17.9922 9.47519 18.0402C9.58702 18.0883 9.70731 18.1136 9.82902 18.1146C9.95074 18.1157 10.0714 18.0925 10.1841 18.0464C10.2968 18.0003 10.3991 17.9322 10.4852 17.8462C10.5712 17.7601 10.6393 17.6577 10.6854 17.5451C10.7315 17.4324 10.7547 17.3117 10.7536 17.19C10.7526 17.0683 10.7273 16.948 10.6792 16.8362C10.6312 16.7243 10.5614 16.6232 10.4738 16.5386L6.91806 12.9829C6.81547 12.8772 6.72591 12.7597 6.65131 12.6327L21.0833 12.6034C21.3264 12.6034 21.5596 12.5068 21.7315 12.3349C21.9034 12.163 22 11.9298 22 11.6867C22 11.4436 21.9034 11.2104 21.7315 11.0385C21.5596 10.8666 21.3264 10.7701 21.0833 10.7701Z" fill="#64748B"/>
</g>
<defs>
<clipPath id="clip0_176_5067">
<rect width="22" height="22" fill="white" transform="translate(0 0.686523)"/>
</clipPath>
</defs>
</svg>
