<svg width="22" height="23" viewBox="0 0 22 23" fill="none" xmlns="http://www.w3.org/2000/svg">
<g clip-path="url(#clip0_934_9161)">
<path d="M6.875 12.0153C6.05915 12.0153 5.26163 11.7734 4.58327 11.3201C3.90492 10.8669 3.37621 10.2226 3.064 9.46887C2.75179 8.71513 2.6701 7.88573 2.82926 7.08555C2.98842 6.28538 3.38129 5.55038 3.95818 4.97349C4.53508 4.39659 5.27008 4.00373 6.07025 3.84456C6.87042 3.6854 7.69982 3.76709 8.45357 4.0793C9.20731 4.39151 9.85155 4.92022 10.3048 5.59857C10.7581 6.27693 11 7.07445 11 7.8903C10.9988 8.98395 10.5638 10.0325 9.79048 10.8058C9.01715 11.5791 7.96865 12.0141 6.875 12.0153ZM6.875 5.59863C6.42175 5.59863 5.97868 5.73304 5.60182 5.98485C5.22496 6.23666 4.93123 6.59457 4.75778 7.01332C4.58433 7.43207 4.53894 7.89284 4.62737 8.33738C4.71579 8.78192 4.93405 9.19026 5.25455 9.51075C5.57504 9.83125 5.98338 10.0495 6.42792 10.1379C6.87246 10.2264 7.33324 10.181 7.75198 10.0075C8.17073 9.83407 8.52864 9.54035 8.78045 9.16348C9.03226 8.78662 9.16667 8.34355 9.16667 7.8903C9.16667 7.28251 8.92522 6.69962 8.49545 6.26985C8.06568 5.84008 7.48279 5.59863 6.875 5.59863ZM13.75 21.182V20.7236C13.75 18.9003 13.0257 17.1516 11.7364 15.8623C10.447 14.573 8.69836 13.8486 6.875 13.8486C5.05164 13.8486 3.30295 14.573 2.01364 15.8623C0.724328 17.1516 0 18.9003 0 20.7236L0 21.182C0 21.4251 0.0965771 21.6582 0.268485 21.8302C0.440394 22.0021 0.673552 22.0986 0.916667 22.0986C1.15978 22.0986 1.39294 22.0021 1.56485 21.8302C1.73676 21.6582 1.83333 21.4251 1.83333 21.182V20.7236C1.83333 19.3865 2.36451 18.1041 3.31 17.1586C4.2555 16.2131 5.53787 15.682 6.875 15.682C8.21213 15.682 9.4945 16.2131 10.44 17.1586C11.3855 18.1041 11.9167 19.3865 11.9167 20.7236V21.182C11.9167 21.4251 12.0132 21.6582 12.1852 21.8302C12.3571 22.0021 12.5902 22.0986 12.8333 22.0986C13.0764 22.0986 13.3096 22.0021 13.4815 21.8302C13.6534 21.6582 13.75 21.4251 13.75 21.182ZM22 16.5986C22 15.3599 21.6414 14.1477 20.9676 13.1083C20.2937 12.0689 19.3335 11.2468 18.2027 10.7411C17.0719 10.2355 15.8189 10.0679 14.5949 10.2587C13.371 10.4495 12.2285 10.9905 11.3053 11.8164C11.2143 11.8963 11.1401 11.9935 11.0869 12.1023C11.0337 12.211 11.0025 12.3293 10.9953 12.4502C10.9881 12.571 11.0048 12.6922 11.0447 12.8065C11.0845 12.9209 11.1466 13.0262 11.2274 13.1164C11.3082 13.2066 11.406 13.28 11.5153 13.3321C11.6246 13.3843 11.7431 13.4143 11.864 13.4205C11.985 13.4266 12.1059 13.4087 12.2199 13.3678C12.3339 13.3269 12.4386 13.2638 12.5281 13.1822C13.1876 12.5925 14.0037 12.2062 14.8779 12.07C15.7521 11.9338 16.647 12.0536 17.4546 12.4148C18.2623 12.776 18.9481 13.3633 19.4293 14.1057C19.9106 14.8481 20.1667 15.7139 20.1667 16.5986C20.1667 16.8418 20.2632 17.0749 20.4352 17.2468C20.6071 17.4187 20.8402 17.5153 21.0833 17.5153C21.3264 17.5153 21.5596 17.4187 21.7315 17.2468C21.9034 17.0749 22 16.8418 22 16.5986ZM16.0417 8.34863C15.2258 8.34863 14.4283 8.10671 13.7499 7.65345C13.0716 7.20019 12.5429 6.55595 12.2307 5.8022C11.9185 5.04846 11.8368 4.21906 11.9959 3.41889C12.1551 2.61872 12.548 1.88371 13.1249 1.30682C13.7017 0.729928 14.4367 0.337059 15.2369 0.177895C16.0371 0.0187314 16.8665 0.10042 17.6202 0.412632C18.374 0.724843 19.0182 1.25355 19.4715 1.93191C19.9247 2.61026 20.1667 3.40779 20.1667 4.22363C20.1655 5.31728 19.7305 6.36579 18.9571 7.13911C18.1838 7.91243 17.1353 8.34742 16.0417 8.34863ZM16.0417 1.93197C15.5884 1.93197 15.1453 2.06637 14.7685 2.31818C14.3916 2.56999 14.0979 2.9279 13.9244 3.34665C13.751 3.7654 13.7056 4.22618 13.794 4.67072C13.8825 5.11526 14.1007 5.52359 14.4212 5.84409C14.7417 6.16458 15.15 6.38284 15.5946 6.47127C16.0391 6.55969 16.4999 6.51431 16.9187 6.34086C17.3374 6.16741 17.6953 5.87368 17.9471 5.49682C18.1989 5.11995 18.3333 4.67688 18.3333 4.22363C18.3333 3.61585 18.0919 3.03295 17.6621 2.60318C17.2323 2.17341 16.6495 1.93197 16.0417 1.93197Z" fill="#64748B"/>
</g>
<defs>
<clipPath id="clip0_934_9161">
<rect width="22" height="22" fill="white" transform="translate(0 0.0986328)"/>
</clipPath>
</defs>
</svg>
